<?xml version="1.0" encoding="utf-8"?>
<!-- Generator: Adobe Illustrator 21.1.0, SVG Export Plug-In . SVG Version: 6.00 Build 0)  -->
<svg version="1.1" id="svg2" xmlns:svg="http://www.w3.org/2000/svg"
	 xmlns="http://www.w3.org/2000/svg" xmlns:xlink="http://www.w3.org/1999/xlink" x="0px" y="0px" viewBox="0 0 148.2 43.6"
	 style="enable-background:new 0 0 148.2 43.6;" xml:space="preserve">
<style type="text/css">
	.st0{fill:#000815;}
	.st1{fill:#000815;stroke:#373A43;stroke-width:1.7993;}
</style>
<g id="g2462">
	<g id="g8" transform="translate(8.95703,53.8965)">
		<path id="path10" class="st0" d="M14.4-25.9c-3.8,4.7-8.2,8.4-14.3,8.4c-4.1,0-7.8-1.4-7.8-6.3c0-1.2,0.5-4,1.1-6.8l4.4-20.6H-9
			l0.6-2.2h8c2.7,0,5.3-0.3,8-0.3L2.3-31.1C1.6-28,1-25,1-23.9c0,2.3,2,2.8,3.8,2.8c1.5,0,3.3-1.1,4.5-1.9c3.9-2.5,5.8-7.3,6.8-11.7
			l4.4-18.7h9.1l-5.8,25.6c-0.6,2.6-1,4.6-0.9,5.2c0.1,0.9,1,1.4,1.7,1.4c3.1,0,7-7.2,8.1-9.8l1.9,1.1c-2.3,5.8-7.1,12.4-13.8,12.4
			C15.7-17.5,14.3-20.8,14.4-25.9"/>
	</g>
	<g id="g16" transform="translate(9.16602,126.383)">
		<path id="path18" class="st1" d="M-9.2-83.7H139"/>
	</g>
	<g id="g20" transform="translate(9.50879,133.387)">
		<path id="path22" class="st0" d="M51.3-125.6l1-7.8h1l-0.4,3l0,0c0.4-0.4,0.8-0.6,1.2-0.6c1.1,0,1.8,0.9,1.8,2.3
			c0,1.4-0.7,3.1-3.3,3.1C52.2-125.5,51.6-125.6,51.3-125.6z M52.8-129.4l-0.4,3.1h0.5c1.3,0,2.1-0.9,2.1-2.3c0-0.9-0.4-1.5-1.1-1.5
			C53.6-130.1,52.9-129.9,52.8-129.4"/>
	</g>
	<g id="g24" transform="translate(9.78711,147.286)">
		<path id="path26" class="st0" d="M51.3-128.5v-4.9h2.1v4.5c0,1,0.3,1.9,1.3,1.9c1.1,0,1.3-0.9,1.3-1.9v-4.5h2.1v4.9
			c0,2.2-1.4,3.1-3.4,3.1C52.7-125.4,51.3-126.3,51.3-128.5"/>
	</g>
	<g id="g28" transform="translate(19.4863,147.286)">
		<path id="path30" class="st0" d="M56-125.5l-2.8-5.4l0,0l0.1,5.4h-1.9v-7.9H54l2.7,5.3l0,0v-5.3h1.9v7.9L56-125.5"/>
	</g>
	<g id="g32" transform="translate(29.8447,147.286)">
		<path id="path34" class="st0" d="M51.3-125.5v-7.9h2.1v7.9L51.3-125.5"/>
	</g>
	<g id="g36" transform="translate(34.1035,147.286)">
		<path id="path38" class="st0" d="M54-125.5l-2.6-7.9h2.2l1.7,6.2l0,0l1.8-6.2h2.2l-2.7,7.9L54-125.5"/>
	</g>
	<g id="g40" transform="translate(44.127,147.286)">
		<path id="path42" class="st0" d="M51.3-125.5v-7.9h5.5v1.5h-3.4v1.6h3.3v1.5h-3.3v1.8H57v1.5L51.3-125.5"/>
	</g>
	<g id="g44" transform="translate(52.3867,147.286)">
		<path id="path46" class="st0" d="M55.8-125.5l-0.5-1.4c-0.4-1.4-0.7-1.7-1.5-1.7h-0.4v3.1h-2.1v-7.9H55c1.4,0,2.5,0.6,2.5,2
			c0,1-0.5,1.7-1.5,2l0,0c0.7,0.2,0.7,0.8,1.1,1.7l0.8,2.1h-2.1V-125.5z M53.4-130.1H54c0.7,0,1.5,0,1.5-0.9c0-0.7-0.7-0.9-1.5-0.9
			h-0.6V-130.1"/>
	</g>
	<g id="g48" transform="translate(61.1445,147.151)">
		<path id="path50" class="st0" d="M51.4-125.6l0.2-1.7c0.5,0.3,1.3,0.5,2.2,0.5c0.7,0,1.3-0.1,1.3-0.8c0-1.5-3.7-0.5-3.7-3.4
			c0-1.9,1.8-2.4,3.4-2.4c0.8,0,1.5,0.1,2,0.3l-0.1,1.6c-0.5-0.2-1.2-0.4-1.8-0.4c-0.5,0-1.4,0-1.4,0.7c0,1.3,3.7,0.4,3.7,3.3
			c0,2-1.7,2.6-3.5,2.6C53-125.2,52.1-125.3,51.4-125.6"/>
	</g>
	<g id="g52" transform="translate(69.6846,147.286)">
		<path id="path54" class="st0" d="M51.3-125.5v-7.9h2.1v7.9L51.3-125.5"/>
	</g>
	<g id="g56" transform="translate(73.7324,147.286)">
		<path id="path58" class="st0" d="M53.3-125.5v-6.3h-1.9v-1.6h6v1.6h-1.9v6.3H53.3"/>
	</g>
	<g id="g60" transform="translate(80.6191,145.253)">
		<path id="path62" class="st0" d="M57.6-123.5l-0.6-1.6h-3l-0.6,1.7h-2.1l3-7.9h2.6l3,7.9L57.6-123.5L57.6-123.5z M54.6-126.6h2
			l-1-3.1l0,0L54.6-126.6z M56.1-131.7v-1.6h1.6v1.6H56.1z M53.5-131.7v-1.6h1.6v1.6H53.5"/>
	</g>
	<g id="g64" transform="translate(90.1484,147.286)">
		<path id="path66" class="st0" d="M53.3-125.5v-6.3h-1.9v-1.6h6v1.6h-1.9v6.3H53.3"/>
	</g>
	<g id="g68" transform="translate(9.84473,161.362)">
		<path id="path70" class="st0" d="M51.3-125.5v-7.9h3.6c1.5,0,2.6,0.6,2.6,2c0,1-0.5,1.5-1.4,1.8l0,0c1.1,0.2,1.6,0.8,1.6,1.7
			c0,1.9-1.7,2.3-3.1,2.3L51.3-125.5L51.3-125.5z M53.4-127H54c0.8,0,1.6-0.1,1.6-0.9c0-0.9-0.8-0.9-1.5-0.9h-0.6L53.4-127L53.4-127
			z M53.4-130.3H54c0.7,0,1.4-0.2,1.4-0.8c0-0.7-0.7-0.8-1.4-0.8h-0.6V-130.3"/>
	</g>
	<g id="g72" transform="translate(18.5811,161.362)">
		<path id="path74" class="st0" d="M51.3-125.5v-7.9h5.5v1.5h-3.4v1.6h3.2v1.5h-3.2v1.8H57v1.5L51.3-125.5"/>
	</g>
	<g id="g76" transform="translate(26.9883,161.362)">
		<path id="path78" class="st0" d="M55.8-125.5l-0.4-1.4c-0.4-1.4-0.7-1.7-1.5-1.7h-0.4v3.1h-2.1v-7.9h3.7c1.4,0,2.5,0.6,2.5,2
			c0,1.1-0.5,1.7-1.5,2l0,0c0.7,0.2,0.7,0.8,1.1,1.7l0.8,2.1h-2.2C55.8-125.6,55.8-125.5,55.8-125.5z M53.4-130.1H54
			c0.7,0,1.5,0,1.5-0.9c0-0.7-0.7-0.9-1.5-0.9h-0.5L53.4-130.1"/>
	</g>
	<g id="g80" transform="translate(35.9658,161.362)">
		<path id="path82" class="st0" d="M56-125.5l-2.8-5.4l0,0l0.1,5.4h-1.9v-7.9H54l2.7,5.3l0,0v-5.3h1.9v7.9L56-125.5"/>
	</g>
</g>
</svg>
